HIERARCHY
ROOT Hips
{
	OFFSET 0.000000 0.000000 0.000000
	CHANNELS 6 Xposition Yposition Zposition Yrotation Xrotation Zrotation
	JOINT Chest
	{
		OFFSET 0.000000 -0.009281 11.569106
		CHANNELS 3 Yrotation Xrotation Zrotation
		JOINT Chest2
		{
			OFFSET -0.000000 0.016865 9.269641
			CHANNELS 3 Yrotation Xrotation Zrotation
			JOINT Chest3
			{
				OFFSET -0.000000 0.000001 8.374491
				CHANNELS 3 Yrotation Xrotation Zrotation
				JOINT Chest4
				{
					OFFSET -0.000000 0.000001 8.374493
					CHANNELS 3 Yrotation Xrotation Zrotation
					JOINT Neck
					{
						OFFSET -0.000000 0.000002 12.152554
						CHANNELS 3 Yrotation Xrotation Zrotation
						JOINT Head
						{
							OFFSET -0.000000 0.040101 7.802319
							CHANNELS 3 Yrotation Xrotation Zrotation
							End Site
							{
								OFFSET -0.000000 0.020947 14.853096
							}
						}
					}
					JOINT RightCollar
					{
						OFFSET 2.894404 0.000001 6.791374
						CHANNELS 3 Yrotation Xrotation Zrotation
						JOINT RightShoulder
						{
							OFFSET 13.574684 0.000001 0.000000
							CHANNELS 3 Yrotation Xrotation Zrotation
							JOINT RightElbow
							{
								OFFSET 23.923903 0.000002 0.000000
								CHANNELS 3 Yrotation Xrotation Zrotation
								JOINT RightWrist
								{
									OFFSET 19.846718 0.012767 0.000000
									CHANNELS 3 Yrotation Xrotation Zrotation
									End Site
									{
										OFFSET 14.973145 0.000001 0.000000
									}
								}
							}
						}
					}
					JOINT LeftCollar
					{
						OFFSET -2.894404 0.000001 6.791374
						CHANNELS 3 Yrotation Xrotation Zrotation
						JOINT LeftShoulder
						{
							OFFSET -13.574684 -0.000001 0.000000
							CHANNELS 3 Yrotation Xrotation Zrotation
							JOINT LeftElbow
							{
								OFFSET -23.923903 -0.000002 0.000000
								CHANNELS 3 Yrotation Xrotation Zrotation
								JOINT LeftWrist
								{
									OFFSET -19.846718 0.012763 0.000000
									CHANNELS 3 Yrotation Xrotation Zrotation
									End Site
									{
										OFFSET -14.973145 -0.000001 0.000000
									}
								}
							}
						}
					}
				}
			}
		}
	}
	JOINT RightHip
	{
		OFFSET 9.469263 0.004643 0.045487
		CHANNELS 3 Yrotation Xrotation Zrotation
		JOINT RightKnee
		{
			OFFSET 0.000000 0.002661 -40.478676
			CHANNELS 3 Yrotation Xrotation Zrotation
			JOINT RightAnkle
			{
				OFFSET 0.000000 0.049106 -35.224068
				CHANNELS 3 Yrotation Xrotation Zrotation
				JOINT RightToe
				{
					OFFSET -0.000001 12.539529 -6.151390
					CHANNELS 3 Yrotation Xrotation Zrotation
					End Site
					{
						OFFSET -0.000001 5.044994 -1.291870
					}
				}
			}
		}
	}
	JOINT LeftHip
	{
		OFFSET -9.469263 0.004641 0.045487
		CHANNELS 3 Yrotation Xrotation Zrotation
		JOINT LeftKnee
		{
			OFFSET 0.000000 0.002661 -40.478676
			CHANNELS 3 Yrotation Xrotation Zrotation
			JOINT LeftAnkle
			{
				OFFSET 0.000000 0.049106 -35.224068
				CHANNELS 3 Yrotation Xrotation Zrotation
				JOINT LeftToe
				{
					OFFSET -0.000001 12.539529 -6.151390
					CHANNELS 3 Yrotation Xrotation Zrotation
					End Site
					{
						OFFSET -0.000001 5.044994 -1.291870
					}
				}
			}
		}
	}
}
MOTION
Frames: 11
Frame Time: 0.016667
13.737776 5.316104 83.036011 -2.455432 -0.672366 -105.146855 2.492406 0.385378 -3.281378 1.140428 0.159005 -1.452527 1.140428 0.159006 -1.452526 0.855705 0.116544 -1.089696 -2.171408 -18.684442 13.229492 0.210504 0.881205 23.556298 7.090475 10.015733 -6.858131 48.817063 37.708938 3.539420 -6.263810 3.251235 34.579800 -73.532601 19.509853 27.450698 -6.428130 1.876532 -13.248476 -57.520192 41.669283 -58.397906 10.607466 7.523161 -43.636965 74.610077 13.080582 -58.835413 -1.828457 -6.439691 4.695736 1.462033 -4.470850 -0.409792 -1.730104 6.456505 -6.259408 -0.225637 -0.244101 -0.003237 -2.365161 -7.448989 -0.137394 0.164321 -1.829990 1.810942 2.020534 6.321188 0.905469 0.328451 -0.081433 0.004520 
13.686597 5.362814 83.029861 -2.390456 -0.667420 -105.001352 2.557353 0.400675 -3.324139 1.163786 0.165474 -1.473049 1.163786 0.165474 -1.473049 0.873244 0.121302 -1.105105 -2.188706 -18.695560 13.291248 0.195691 0.856493 23.662905 7.096485 9.901314 -6.809483 49.035974 37.822914 3.623409 -6.398072 3.699837 35.017895 -74.134491 20.869416 28.179048 -6.520016 1.738520 -13.206020 -58.014008 41.676038 -58.524066 10.519115 7.613833 -44.126744 74.516244 13.431359 -58.921686 -1.825456 -6.272755 4.768757 1.497647 -4.632280 -0.570828 -1.737329 6.512298 -6.323142 -0.166436 -0.216322 0.002507 -2.374201 -7.260682 -0.115361 0.197855 -1.971824 1.647094 2.025822 6.346926 0.919596 0.267577 -0.111222 0.001447 
13.632464 5.405410 83.024055 -2.342278 -0.663722 -104.876940 2.619254 0.416602 -3.364313 1.182863 0.171365 -1.493471 1.182863 0.171365 -1.493470 0.887572 0.125634 -1.120440 -2.196636 -18.710800 13.350269 0.196354 0.822862 23.767130 7.122084 9.751608 -6.764821 49.417129 37.857703 3.732804 -6.398256 4.353338 35.421665 -74.643777 22.308135 28.988805 -6.645526 1.589453 -13.139045 -58.544044 41.666753 -58.579015 10.369683 7.678973 -44.668962 74.402883 13.827306 -59.022308 -1.841988 -6.080317 4.767575 1.571447 -4.868606 -0.644624 -1.783259 6.575236 -6.360870 -0.107844 -0.171306 0.005596 -2.381325 -7.090115 -0.059848 0.224329 -2.110392 1.492133 2.036063 6.348354 0.903949 0.212352 -0.108919 -0.000567 
13.581870 5.449092 83.019630 -2.320249 -0.645204 -104.762835 2.664604 0.428843 -3.405600 1.196464 0.177401 -1.515318 1.196464 0.177401 -1.515318 0.897794 0.130086 -1.136840 -2.196476 -18.730160 13.407368 0.210391 0.780421 23.870049 7.160205 9.507815 -6.733450 49.980708 37.938460 3.893160 -6.451534 4.967375 35.762099 -75.170330 23.821343 29.856338 -6.784426 1.339448 -13.124162 -59.128579 41.736892 -58.605229 10.302676 7.681114 -45.202110 74.271579 14.268635 -59.163263 -1.902252 -5.875490 4.718588 1.683783 -5.177681 -0.619550 -1.869130 6.691189 -6.404369 -0.050183 -0.148560 0.005850 -2.411528 -6.941343 -0.001522 0.245461 -2.259405 1.367405 2.057021 6.391609 0.870944 0.162429 -0.128349 -0.002055 
13.531505 5.492574 83.017136 -2.313960 -0.620794 -104.651182 2.709754 0.447543 -3.450888 1.208411 0.185203 -1.539489 1.208411 0.185203 -1.539493 0.906781 0.135861 -1.154988 -2.193968 -18.757357 13.462340 0.226706 0.723384 23.969109 7.182982 9.212820 -6.715383 50.689764 38.099154 4.049097 -6.718678 5.402064 36.001661 -75.608077 25.351528 30.815102 -6.934396 1.070025 -13.095042 -59.788286 41.800505 -58.611684 10.338421 7.597284 -45.676064 74.158342 14.667712 -59.390803 -1.957966 -5.666774 4.675318 1.788610 -5.528334 -0.560287 -1.976116 6.816066 -6.562896 0.006777 -0.122655 0.008231 -2.455227 -6.793204 0.031397 0.271352 -2.438614 1.267357 2.083895 6.451955 0.849398 0.115884 -0.140716 -0.004059 
13.482813 5.529792 83.015350 -2.319837 -0.597100 -104.525827 2.761036 0.478715 -3.513558 1.224038 0.198667 -1.571684 1.224039 0.198667 -1.571686 0.918545 0.145855 -1.179167 -2.193536 -18.801393 13.518587 0.236766 0.635604 24.068367 7.206837 8.869270 -6.668118 51.451269 38.374045 4.211925 -7.194307 5.566667 36.049291 -75.894200 26.744844 31.721485 -7.110596 0.812945 -12.993248 -60.518440 41.835803 -58.597600 10.373086 7.424195 -46.098842 73.957514 15.100138 -59.676483 -2.017306 -5.454487 4.640873 1.898226 -5.916097 -0.545250 -2.089979 6.953779 -6.665088 0.061426 -0.094153 0.014331 -2.495011 -6.629297 0.013798 0.292430 -2.682255 1.182821 2.121633 6.552778 0.846293 0.070065 -0.151767 -0.008488 
13.440448 5.567888 83.011757 -2.336859 -0.581113 -104.378507 2.815949 0.517298 -3.600233 1.244417 0.216095 -1.613330 1.244416 0.216095 -1.613331 0.933889 0.158788 -1.210443 -2.195006 -18.860007 13.577144 0.241525 0.521080 24.169936 7.230916 8.508851 -6.603031 52.185374 38.646638 4.357603 -7.571961 5.614138 35.937676 -76.118490 27.918139 32.428396 -7.319874 0.484092 -12.907598 -61.238390 41.953194 -58.573127 10.312121 7.222916 -46.455668 73.708424 15.640150 -59.990569 -2.070450 -5.256849 4.628226 2.024161 -6.316745 -0.605489 -2.212460 7.100993 -6.753620 0.107320 -0.065501 0.019321 -2.540169 -6.437700 -0.079654 0.327423 -3.021078 1.124487 2.174261 6.716117 0.874427 0.019710 -0.166185 -0.015540 
13.393318 5.607856 83.004433 -2.328474 -0.587349 -104.234042 2.891231 0.584187 -3.676157 1.267056 0.234426 -1.658574 1.267056 0.234425 -1.658577 0.950936 0.172384 -1.244420 -2.193581 -18.923731 13.631667 0.249392 0.397126 24.264561 7.232471 8.228526 -6.591126 52.821917 38.724536 4.361183 -7.633879 5.760672 35.746888 -76.222452 28.898394 33.025218 -7.554610 0.132411 -12.875532 -61.883358 42.095040 -58.486247 10.179306 7.073665 -46.725952 73.431336 16.156051 -60.342331 -2.096246 -5.016278 4.679225 2.169589 -6.738791 -0.727730 -2.363023 7.230672 -6.866554 0.163374 -0.027676 0.054009 -2.569695 -6.186460 -0.250306 0.372602 -3.442753 1.059889 2.258188 6.933201 0.992183 -0.041295 -0.190124 -0.027519 
13.345849 5.659660 82.994484 -2.349924 -0.589494 -104.074003 2.954011 0.625658 -3.766530 1.293122 0.248832 -1.702249 1.293122 0.248833 -1.702249 0.970543 0.183026 -1.277220 -2.198877 -18.987390 13.678006 0.242616 0.275490 24.342091 7.220669 7.951779 -6.575228 53.398214 38.611415 4.226778 -7.528760 6.114239 35.508159 -76.242048 29.811170 33.588251 -7.785989 -0.161255 -12.827733 -62.473630 42.127811 -58.326680 10.021014 7.027664 -46.895409 73.156899 16.530507 -60.703176 -2.147498 -4.757164 4.768762 2.342338 -7.265878 -0.862452 -2.519302 7.419748 -6.996132 0.210723 0.004250 0.075053 -2.630079 -5.936492 -0.518450 0.423718 -3.919166 1.038599 2.373346 7.174719 1.145141 -0.105616 -0.210318 -0.039588 
13.293092 5.727362 82.984276 -2.386644 -0.582121 -103.941279 3.008503 0.658467 -3.835914 1.314974 0.256642 -1.741828 1.314974 0.256642 -1.741832 0.986970 0.188737 -1.306931 -2.208643 -19.046208 13.720545 0.227397 0.164036 24.411685 7.225959 7.564887 -6.517197 54.082186 38.439659 4.156628 -7.609637 6.524414 35.141631 -76.285495 30.630120 34.072071 -7.983397 -0.442852 -12.761658 -63.070937 42.069994 -58.157182 9.937211 7.022246 -46.970716 72.962301 16.833278 -60.994716 -2.215634 -4.450295 4.928498 2.520257 -7.890701 -0.961757 -2.688199 7.629244 -7.253859 0.262571 0.042341 0.094003 -2.716858 -5.678908 -0.791636 0.479294 -4.425941 1.103727 2.487498 7.428531 1.249543 -0.161715 -0.228241 -0.049758 
13.232383 5.797892 82.975937 -2.440709 -0.571780 -103.839769 3.059289 0.688755 -3.882044 1.327957 0.259758 -1.777226 1.327957 0.259759 -1.777230 0.996731 0.190961 -1.333490 -2.215351 -19.103945 13.759259 0.216720 0.054466 24.475336 7.253723 7.224571 -6.448406 54.840630 38.243933 4.124884 -7.962739 6.836246 34.624216 -76.287503 31.278339 34.487237 -8.176249 -0.763429 -12.737656 -63.605344 42.016233 -57.937763 9.906199 7.049121 -46.964282 72.723695 17.189209 -61.285047 -2.286087 -4.111362 5.088604 2.690328 -8.586589 -0.996113 -2.879911 7.837958 -7.540868 0.326222 0.090501 0.122328 -2.817174 -5.437050 -1.031652 0.530354 -4.927616 1.210123 2.596446 7.669873 1.306165 -0.203622 -0.235911 -0.056714 
